<svg id="a9906660-5466-459e-9f94-c744e2eb34b9" data-name="Layer 1" xmlns="http://www.w3.org/2000/svg" viewBox="0 0 48 48"><defs><style>.af1bfba8-24fd-4fb2-80d9-4b7d774ca354,.f3a5b212-8111-41ed-8dcf-b1f18e2de7d8{fill:#373c41;}.f3a5b212-8111-41ed-8dcf-b1f18e2de7d8{fill-rule:evenodd;}</style></defs><path id="ffcec71e-39fa-402c-9b8d-2dcbad4def06" data-name="Path 1384" class="f3a5b212-8111-41ed-8dcf-b1f18e2de7d8" d="M33.78,11.78A9.78,9.78,0,1,1,24,2,9.78,9.78,0,0,1,33.78,11.78Zm-4.89,0A4.89,4.89,0,1,1,24,6.89,4.89,4.89,0,0,1,28.89,11.78Z"/><path id="aa543447-3a3b-4679-8eaf-2133006e8315" data-name="Path 1385" class="af1bfba8-24fd-4fb2-80d9-4b7d774ca354" d="M33.78,31.33a2.45,2.45,0,0,0-2.45-2.44H16.67a2.45,2.45,0,0,0-2.45,2.44V46H9.33V31.33A7.34,7.34,0,0,1,16.67,24H31.33a7.34,7.34,0,0,1,7.34,7.33V46H33.78Z"/></svg>