<svg id="album" xmlns="http://www.w3.org/2000/svg" width="13.07" height="13.07" viewBox="0 0 13.07 13.07">
  <path id="album-2" data-name="album" d="M2,13.109a1.96,1.96,0,0,0,1.96,1.96h9.149a1.96,1.96,0,0,0,1.96-1.96V3.96A1.96,1.96,0,0,0,13.109,2H3.96A1.96,1.96,0,0,0,2,3.96Zm11.763,0a.653.653,0,0,1-.653.653H3.96a.653.653,0,0,1-.653-.653V3.96a.653.653,0,0,1,.653-.653H7.228V8.542H8.793l1.049-1.4,1.049,1.4h1.565V3.307h.653a.653.653,0,0,1,.653.653Zm-2.614-9.8H8.535V6.794L9.842,5.046l1.307,1.748Z" transform="translate(-2 -2)" fill="#373c41" fill-rule="evenodd"/>
</svg>
